<?xml version="1.0" standalone="no"?>
<!DOCTYPE svg PUBLIC "-//W3C//DTD SVG 20010904//EN"
 "http://www.w3.org/TR/2001/REC-SVG-20010904/DTD/svg10.dtd">
<svg version="1.0" xmlns="http://www.w3.org/2000/svg"
 width="195.000000pt" height="195.000000pt" viewBox="0 0 195.000000 195.000000"
 preserveAspectRatio="xMidYMid meet">
<metadata>
Created by potrace 1.14, written by Peter Selinger 2001-2017
</metadata>
<g transform="translate(0.000000,195.000000) scale(0.100000,-0.100000)"
fill="#000000" stroke="none">
<path d="M0 975 l0 -955 975 0 975 0 0 955 0 955 -975 0 -975 0 0 -955z m1097
823 l107 -102 8 39 c5 21 13 44 19 52 15 18 279 19 297 1 9 -9 12 -69 12 -208
l0 -197 200 -187 c110 -103 200 -196 200 -205 0 -9 -6 -26 -14 -36 -13 -18
-26 -19 -150 -17 l-136 3 0 -381 c0 -260 -4 -388 -11 -402 -11 -21 -14 -21
-353 -14 -187 4 -345 11 -350 16 -5 5 -6 16 -3 24 5 12 23 16 79 17 40 1 179
4 308 8 l235 6 2 399 c1 277 5 402 13 410 6 6 51 13 101 16 l90 5 -155 144
-156 144 0 184 0 183 -60 0 -60 0 0 -68 c0 -74 -17 -112 -51 -112 -12 0 -78
54 -163 134 l-142 134 -255 -235 c-139 -129 -327 -301 -416 -381 -90 -81 -163
-150 -163 -154 0 -5 43 -8 95 -8 77 0 97 -3 102 -15 3 -9 2 -19 -2 -23 -10
-10 -284 -18 -301 -9 -8 4 -14 13 -14 20 0 14 301 315 668 665 198 190 269
252 287 252 18 0 56 -29 132 -102z m-124 -739 c30 -14 42 -35 62 -118 70 -279
-21 -533 -227 -634 -80 -39 -159 -62 -183 -53 -34 13 -11 37 80 81 168 82 241
188 252 365 4 75 -14 221 -31 237 -2 2 -34 -12 -71 -31 -59 -32 -207 -83 -337
-116 -102 -27 -178 -131 -178 -246 0 -57 25 -164 39 -164 3 0 20 24 36 52 62
107 224 245 254 215 18 -18 13 -33 -29 -82 -107 -124 -185 -262 -239 -426 -27
-83 -35 -98 -56 -102 -25 -4 -25 -3 -25 70 0 42 7 102 16 135 l15 61 -43 85
c-42 83 -43 86 -43 186 0 90 3 106 27 151 50 95 129 147 279 185 109 28 209
70 284 120 64 43 80 46 118 29z"/>
</g>
</svg>
